<svg
  width="120"
  height="120"
  viewBox="0 0 96 96"
  xmlns="http://www.w3.org/2000/svg"
  role="img"
  aria-labelledby="title desc"
>
  <title id="title">Hunger Free Icon With Steam</title>
  <desc id="desc">Bowl with leaf and three steam lines.</desc>

  <rect x="4" y="4" width="88" height="88" rx="24" fill="#0f172a" />

  <!-- Bowl -->
  <path
    d="M24 58 Q48 76 72 58 L72 54 Q72 52 70 52 L26 52 Q24 52 24 54 Z"
    fill="#f97316"
  />
  <path
    d="M28 55 Q48 68 68 55"
    fill="none"
    stroke="#fed7aa"
    stroke-width="2"
    stroke-linecap="round"
  />

  <!-- Leaf -->
  <path
    d="M48 26
       C40 28 34 36 34 44
       C42 42 48 36 50 28
       C52 34 56 38 62 40
       C60 34 56 28 48 26Z"
    fill="#22c55e"
  />

  <!-- Leaf vein -->
  <path
    d="M44 38 L52 30"
    stroke="#15803d"
    stroke-width="2"
    stroke-linecap="round"
  />

  <!-- Steam lines -->
  <path
    d="M40 20 C38 16 40 12 42 10"
    stroke="#e5e7eb"
    stroke-width="2"
    stroke-linecap="round"
  />
  <path
    d="M48 18 C46 14 48 10 50 8"
    stroke="#e5e7eb"
    stroke-width="2"
    stroke-linecap="round"
  />
  <path
    d="M56 20 C54 16 56 12 58 10"
    stroke="#e5e7eb"
    stroke-width="2"
    stroke-linecap="round"
  />

</svg>
